<mxfile host="app.diagrams.net" modified="2023-11-13T05:55:14.681Z" agent="Mozilla/5.0 (Windows NT 10.0; Win64; x64) AppleWebKit/537.36 (KHTML, like Gecko) Chrome/119.0.0.0 Safari/537.36" version="22.1.0" etag="rwsZ-IysifQYxC7176Bx" type="github">
  <diagram name="Page-1" id="kcfeYI-ASCR3duN48dnx">
    <mxGraphModel>
      <root>
        <mxCell id="0" />
        <mxCell id="1" parent="0" />
      </root>
    </mxGraphModel>
  </diagram>
</mxfile>
